<svg id="visual" viewBox="0 0 1920 1080" width="1920" height="1080" xmlns="http://www.w3.org/2000/svg" xmlns:xlink="http://www.w3.org/1999/xlink" version="1.1"><g transform="translate(-221.3417296505304 86.48346557880996)"><path d="M1246.7 -1427.6C1601.3 -1188.3 1864.2 -781.7 1838.2 -402.1C1812.2 -22.6 1497.1 330 1189 520C880.9 710 579.6 737.4 272.4 926.4C-34.8 1115.4 -347.9 1465.9 -682.6 1504.9C-1017.2 1543.8 -1373.3 1271.1 -1396.1 945C-1418.9 618.8 -1108.3 239.1 -956.5 -90C-804.8 -419.1 -811.8 -697.5 -678.9 -975.9C-545.9 -1254.3 -273 -1532.6 86.6 -1635.8C446.1 -1739 892.2 -1666.9 1246.7 -1427.6" fill="#c075cd"></path></g></svg>