<svg id="visual" viewBox="0 0 1920 1080" width="1920" height="1080" xmlns="http://www.w3.org/2000/svg" xmlns:xlink="http://www.w3.org/1999/xlink" version="1.1"><g transform="translate(1922.5749805236173 -57.78757187267706)"><path d="M1009.6 -1156.9C1245.3 -1005.4 1329.7 -627.4 1250.4 -330.9C1171.1 -34.4 928.1 180.5 800.1 518.1C672.2 855.7 659.3 1315.8 504.7 1360.9C350.1 1406 53.9 1036 -265.8 862.3C-585.4 688.7 -928.4 711.3 -1108.5 561.4C-1288.7 411.5 -1306.2 89.1 -1267.7 -240C-1229.3 -569 -1135 -904.6 -914.4 -1058.7C-693.8 -1212.8 -346.9 -1185.4 20 -1209.3C387 -1233.2 773.9 -1308.3 1009.6 -1156.9" fill="#e3c3e9"></path></g></svg>