<svg width="1920" height="900" xmlns="http://www.w3.org/2000/svg" version="1.1">

 <g>
  <title>Layer 1</title>
  <g id="svg_1">
   <path id="svg_2" fill="#CCF1C6" d="m147.29941,556.70042c52.2,82.4 75.1,163.5 150.2,234.2c75.2,70.7 202.7,131.1 221.6,202.3c18.9,71.3 -70.8,153.4 -123.2,263.6c-52.4,110.1 -67.5,248.2 -138.7,223.5c-71.2,-24.7 -198.3,-212.1 -314.2,-231.7c-115.8,-19.7 -220.3,128.5 -300.1,158.2c-79.8,29.7 -135,-59.2 -112.1,-149.7c23,-90.5 123.9,-182.6 117.4,-278.5c-6.5,-96 -120.4,-195.6 -156.7,-309.3c-36.3,-113.7 5.1,-241.3 91.4,-304c86.3,-62.7 217.5,-60.3 324,-17.4c106.5,42.9 188.1,126.5 240.4,208.8"/>
  </g>
  <g id="svg_4">
   <path id="svg_3" fill="#e3c3e9" d="m2935.17495,-1214.68757c235.7,151.5 320.1,529.5 240.8,826c-79.3,296.5 -322.3,511.4 -450.3,849c-127.9,337.6 -140.8,797.7 -295.4,842.8c-154.6,45.1 -450.8,-324.9 -770.5,-498.6c-319.6,-173.6 -662.6,-151 -842.7,-300.9c-180.2,-149.9 -197.7,-472.3 -159.2,-801.4c38.4,-329 132.7,-664.6 353.3,-818.7c220.6,-154.1 567.5,-126.7 934.4,-150.6c367,-23.9 753.9,-99 989.6,52.4"/>
  </g>
 </g>
</svg>