<svg width="1920" height="1080" xmlns="http://www.w3.org/2000/svg" version="1.1">

 <g>
  <title>Layer 1</title>
  <g id="svg_1">
   <path id="svg_2" fill="#e3c3e9" d="m2932.17495,-1214.68757c235.7,151.5 320.1,529.5 240.8,826c-79.3,296.5 -322.3,511.4 -450.3,849c-127.9,337.6 -140.8,797.7 -295.4,842.8c-154.6,45.1 -450.8,-324.9 -770.5,-498.6c-319.6,-173.6 -662.6,-151 -842.7,-300.9c-180.2,-149.9 -197.7,-472.3 -159.2,-801.4c38.4,-329 132.7,-664.6 353.3,-818.7c220.6,-154.1 567.5,-126.7 934.4,-150.6c367,-23.9 753.9,-99 989.6,52.4"/>
  </g>
  <g id="svg_4">
   <path id="svg_3" fill="#CCF1C6" d="m213.46825,-277.48237c69.1,1.8 110.9,92.4 117.3,181.3c6.3,89 -22.8,176.3 -81.4,217.3c-58.6,41 -146.7,35.7 -222.7,62.9c-75.9,27.2 -139.6,87.1 -210.3,93c-70.7,5.9 -148.3,-42 -136.2,-102.4c12.2,-60.4 114.1,-133.1 138.7,-210.3c24.6,-77.1 -28,-158.6 -18.8,-171c9.2,-12.4 80.4,44.4 164.1,29.4c83.8,-15.1 180.2,-102 249.3,-100.2"/>
  </g>
 </g>
</svg>