<svg id="visual" viewBox="0 0 1920 1080" width="1920" height="1080" xmlns="http://www.w3.org/2000/svg" xmlns:xlink="http://www.w3.org/1999/xlink" version="1.1"><g><g transform="translate(420 689)"><path d="M403 -234.4C476.3 -105.7 458.1 74.1 375.7 186.2C293.2 298.3 146.6 342.7 13.7 334.8C-119.2 326.8 -238.3 266.6 -294.1 169.9C-350 73.1 -342.5 -60.1 -282.9 -180.9C-223.3 -301.6 -111.7 -409.9 26.6 -425.3C164.8 -440.6 329.7 -363 403 -234.4Z" fill="#e3c3e9"></path></g><g transform="translate(1735 574)"><path d="M281.5 -166.8C339.3 -62.4 343.1 69 287.2 161C231.3 253 115.6 305.7 9.5 300.2C-96.6 294.7 -193.1 231 -244.4 141.6C-295.7 52.3 -301.6 -62.6 -253.3 -161.6C-205.1 -260.5 -102.5 -343.5 4.7 -346.2C111.8 -348.9 223.7 -271.3 281.5 -166.8Z" fill="#e3c3e9"></path></g></g></svg>