<svg id="visual" viewBox="0 0 1920 1080" width="1920" height="1080" xmlns="http://www.w3.org/2000/svg" xmlns:xlink="http://www.w3.org/1999/xlink" version="1.1"><g><g transform="translate(1612 403)"><path d="M309.4 -150.7C385.9 -46.2 422.3 109.3 364.1 206.4C305.9 303.4 152.9 341.9 13.9 333.9C-125.1 325.9 -250.2 271.3 -332.1 160.6C-413.9 49.9 -452.6 -116.8 -390 -213.3C-327.5 -309.7 -163.7 -335.8 -23.6 -322.2C116.5 -308.5 233 -255.1 309.4 -150.7Z" fill="#e3c3e9"></path></g><g transform="translate(209 700)"><path d="M301.6 -182C357.5 -77.3 346.5 58.2 285.1 167.1C223.7 276 111.8 358.3 -1.8 359.3C-115.5 360.4 -231 280.2 -284.7 175.8C-338.4 71.4 -330.2 -57.3 -272.5 -163.1C-214.7 -268.9 -107.4 -351.9 7.7 -356.3C122.8 -360.8 245.6 -286.8 301.6 -182Z" fill="#e3c3e9"></path></g></g></svg>