<svg id="visual" viewBox="0 0 1920 1080" width="1920" height="1080" xmlns="http://www.w3.org/2000/svg" xmlns:xlink="http://www.w3.org/1999/xlink" version="1.1"><g><g transform="translate(854 501)"><path d="M137.9 -82.5C160.6 -40.1 148.7 19.4 119.9 63C91.2 106.6 45.6 134.3 1.2 133.6C-43.2 132.9 -86.3 103.8 -114.9 60.3C-143.6 16.8 -157.7 -41.2 -136.1 -82.9C-114.6 -124.6 -57.3 -150 0.1 -150C57.5 -150.1 115.1 -124.9 137.9 -82.5Z" fill="#e3c3e9"></path></g><g transform="translate(1566 213)"><path d="M107.5 -55.4C132.9 -18.1 142.7 35 122.2 74.2C101.6 113.3 50.8 138.6 0 138.6C-50.8 138.6 -101.6 113.3 -123 73.6C-144.4 33.9 -136.4 -20.1 -111 -57.4C-85.6 -94.7 -42.8 -115.3 -0.9 -114.8C41.1 -114.3 82.1 -92.7 107.5 -55.4Z" fill="#e3c3e9"></path></g><g transform="translate(290 847)"><path d="M139.7 -76.7C169 -29.8 172.6 35.9 145 81.9C117.4 128 58.7 154.2 9.4 148.8C-40 143.4 -79.9 106.3 -103.6 62.6C-127.2 18.8 -134.6 -31.6 -114.6 -73C-94.6 -114.5 -47.3 -146.9 3.9 -149.2C55.2 -151.5 110.3 -123.5 139.7 -76.7Z" fill="#e3c3e9"></path></g><g transform="translate(440 269)"><path d="M120.9 -76.9C140 -36.7 127.4 14.8 101.9 51.8C76.5 88.9 38.2 111.5 -5.6 114.8C-49.5 118 -98.9 101.8 -121.1 66.7C-143.2 31.6 -138 -22.6 -113.3 -66C-88.6 -109.5 -44.3 -142.3 3.3 -144.2C50.9 -146.2 101.8 -117.2 120.9 -76.9Z" fill="#e3c3e9"></path></g><g transform="translate(1694 678)"><path d="M94.8 -55.1C111.6 -25.7 106 16.2 86.5 48.6C67 81 33.5 103.9 -3.3 105.8C-40.1 107.7 -80.2 88.6 -100.5 55.7C-120.8 22.9 -121.2 -23.7 -101.2 -55C-81.1 -86.2 -40.6 -102.2 -0.8 -101.8C39 -101.4 78.1 -84.5 94.8 -55.1Z" fill="#e3c3e9"></path></g><g transform="translate(1179 781)"><path d="M131.2 -73.3C152.8 -38.4 141.1 18.2 113.7 54.4C86.3 90.7 43.1 106.7 -2.8 108.3C-48.8 110 -97.6 97.2 -123.5 61.9C-149.3 26.5 -152.2 -31.5 -127.8 -68.1C-103.4 -104.6 -51.7 -119.8 1.6 -120.7C54.8 -121.6 109.6 -108.3 131.2 -73.3Z" fill="#e3c3e9"></path></g></g></svg>