<svg xmlns="http://www.w3.org/2000/svg" viewBox="0 0 750 500"><g id="freepik--Clouds--inject-38"><path d="M617.65,25.22A72.49,72.49,0,0,0,580.82,9.48c-32.46-3.89-58.42,36.35-64.91,39S505.52,38,484.75,39.34s-26,16.88-35.05,19.47-19.47-2.59-27.26-2.59-26,13-26,13h283s2.6-19.47-13-31.16-23.37,3.9-36.35,0a63.18,63.18,0,0,0-9-9.82" style="fill:none;stroke:#263238;stroke-linecap:round;stroke-linejoin:round"></path><path d="M543.27,52.82c1.45.37,2.81.75,4.05,1.11a19,19,0,0,0,14.47-1.63,25.21,25.21,0,0,1,11.73-3.43c9.28,0,15,3.09,15,3.09" style="fill:none;stroke:#263238;stroke-linecap:round;stroke-linejoin:round"></path><path d="M455.92,66.41a19.61,19.61,0,0,1,8.77-6.71c6.19-2.58,13.9,3.26,18.56,3.1,15-.52,9.29-8.26,27.34-12.38,8.84-2,19.77-.58,28.64,1.41" style="fill:none;stroke:#263238;stroke-linecap:round;stroke-linejoin:round"></path><path d="M666.36,68.47S656,58.67,644.18,57.12s-18.57,7.74-22.7,6.71-16-8.26-25.78-1.55" style="fill:none;stroke:#263238;stroke-linecap:round;stroke-linejoin:round"></path><path d="M253.65,423.82a76.39,76.39,0,0,0-38.82-16.59c-34.21-4.1-61.57,38.31-68.41,41s-10.94-10.94-32.83-9.57-27.37,17.78-36.94,20.52-20.52-2.74-28.73-2.74-27.36,13.68-27.36,13.68H318.8s2.74-20.52-13.68-32.83-24.63,4.1-38.31,0A66.38,66.38,0,0,0,257.35,427" style="fill:none;stroke:#263238;stroke-linecap:round;stroke-linejoin:round"></path><path d="M175.26,452.9c1.52.39,3,.79,4.27,1.17a20,20,0,0,0,15.24-1.72,26.68,26.68,0,0,1,12.36-3.61c9.79,0,15.77,3.26,15.77,3.26" style="fill:none;stroke:#263238;stroke-linecap:round;stroke-linejoin:round"></path><path d="M83.2,467.22a20.68,20.68,0,0,1,9.24-7.07c6.53-2.72,14.65,3.43,19.57,3.26,15.76-.54,9.78-8.69,28.81-13,9.31-2.13,20.84-.61,30.18,1.49" style="fill:none;stroke:#263238;stroke-linecap:round;stroke-linejoin:round"></path><path d="M305,469.39s-10.87-10.32-23.37-12-19.57,8.16-23.92,7.07-16.85-8.7-27.17-1.63" style="fill:none;stroke:#263238;stroke-linecap:round;stroke-linejoin:round"></path><path d="M176.18,87.49a32.36,32.36,0,0,0-16.49-7c-14.53-1.75-26.16,16.27-29.06,17.43s-4.66-4.65-14-4.07-11.62,7.56-15.69,8.72-8.72-1.16-12.21-1.16-11.62,5.81-11.62,5.81H203.87s1.16-8.71-5.81-14-10.47,1.75-16.28,0a28.27,28.27,0,0,0-4-4.39" style="fill:none;stroke:#263238;stroke-linecap:round;stroke-linejoin:round"></path><path d="M142.88,99.85l1.81.5a8.57,8.57,0,0,0,6.48-.73,11.28,11.28,0,0,1,5.25-1.54,15,15,0,0,1,6.7,1.39" style="fill:none;stroke:#263238;stroke-linecap:round;stroke-linejoin:round"></path><path d="M103.76,105.93a8.86,8.86,0,0,1,3.93-3c2.77-1.15,6.22,1.46,8.31,1.39,6.7-.23,4.16-3.7,12.25-5.55,3.95-.9,8.85-.25,12.82.64" style="fill:none;stroke:#263238;stroke-linecap:round;stroke-linejoin:round"></path><path d="M198,106.86s-4.62-4.39-9.93-5.08-8.31,3.46-10.16,3-7.16-3.7-11.55-.69" style="fill:none;stroke:#263238;stroke-linecap:round;stroke-linejoin:round"></path><path d="M663.56,438.73a51.88,51.88,0,0,0-26.32-11.25c-23.2-2.78-41.75,26-46.39,27.84s-7.43-7.42-22.27-6.5S550,460.88,543.53,462.74s-13.92-1.86-19.49-1.86-18.55,9.28-18.55,9.28H707.75s1.85-13.91-9.28-22.26-16.7,2.78-26,0a44.42,44.42,0,0,0-6.41-7" style="fill:none;stroke:#263238;stroke-linecap:round;stroke-linejoin:round"></path><path d="M610.41,458.45c1,.27,2,.54,2.89.8a13.61,13.61,0,0,0,10.34-1.16,18,18,0,0,1,8.38-2.46,24.08,24.08,0,0,1,10.69,2.21" style="fill:none;stroke:#263238;stroke-linecap:round;stroke-linejoin:round"></path><path d="M548,468.17a14.1,14.1,0,0,1,6.27-4.8c4.42-1.84,9.93,2.33,13.27,2.22,10.69-.37,6.64-5.9,19.54-8.85,6.31-1.44,14.13-.41,20.46,1" style="fill:none;stroke:#263238;stroke-linecap:round;stroke-linejoin:round"></path><path d="M698.37,469.64s-7.37-7-15.85-8.11-13.27,5.53-16.22,4.79-11.43-5.89-18.43-1.1" style="fill:none;stroke:#263238;stroke-linecap:round;stroke-linejoin:round"></path></g></svg>
