<svg xmlns="http://www.w3.org/2000/svg" viewBox="0 0 500 500"><g id="freepik--Clouds--inject-172"><g style="opacity:0.5"><path d="M280.93,74.5c-28.25-40.79-70.49-26.58-92.84,10.67-5.8,9.67-13.53-3.87-30,1S137.83,106.43,133,110.3s-8.7-4.83-21.27-3.87-20.29,10.64-20.29,10.64l-37.7,7.73h318s-13.54-30-30-37.7-30.92,4.84-44.46,1C289.57,85.86,285.05,80.46,280.93,74.5Z" style="fill:none;stroke:#000;stroke-miterlimit:10"></path><path d="M279.91,88.07c-7.31-4.88-11.83-12.56-17.83-18.79-9.22-9.58-26.75-6.47-33.53,4.38-8.69,13.91-2.78,20.86-7,23.3s-11.82-2.78-18.08,2.43-4.52,10.43-7.65,12.52-3.82-1.4-9,1.73-5.91,5.91-5.91,5.91" style="fill:none;stroke:#000;stroke-miterlimit:10"></path></g><g style="opacity:0.5"><path d="M282.67,348.58c-10-14.42-24.92-9.4-32.82,3.77-2,3.42-4.78-1.36-10.59.35s-7.18,7.17-8.89,8.54-3.07-1.71-7.51-1.37a11.07,11.07,0,0,0-7.18,3.76l-13.33,2.73H314.78S310,355.77,304.18,353s-10.93,1.71-15.72.34C285.73,352.6,284.13,350.69,282.67,348.58Z" style="fill:none;stroke:#000;stroke-miterlimit:10"></path><path d="M282.31,353.38c-2.58-1.73-4.18-4.44-6.3-6.64-3.26-3.39-9.45-2.29-11.85,1.55-3.08,4.91-1,7.37-2.46,8.23s-4.18-1-6.39.86-1.6,3.69-2.71,4.43-1.35-.5-3.19.61-2.09,2.09-2.09,2.09" style="fill:none;stroke:#000;stroke-miterlimit:10"></path></g><g style="opacity:0.5"><path d="M431.67,281c-10-14.42-24.92-9.39-32.82,3.78-2.05,3.41-4.79-1.37-10.6.34s-7.17,7.18-8.88,8.54-3.08-1.71-7.52-1.36a11.07,11.07,0,0,0-7.17,3.75l-13.33,2.74H463.77s-4.78-10.6-10.59-13.33-10.93,1.71-15.72.34C434.73,285,433.13,283.11,431.67,281Z" style="fill:none;stroke:#000;stroke-miterlimit:10"></path><path d="M431.31,285.8c-2.58-1.72-4.18-4.44-6.3-6.64-3.26-3.39-9.46-2.29-11.86,1.55-3.07,4.92-1,7.37-2.46,8.23s-4.17-1-6.39.86-1.59,3.69-2.7,4.43-1.35-.49-3.2.61-2.09,2.09-2.09,2.09" style="fill:none;stroke:#000;stroke-miterlimit:10"></path></g></g></svg>
