<svg xmlns="http://www.w3.org/2000/svg" viewBox="0 0 500 500"><g id="freepik--Clouds--inject-60"><path d="M397.11,80.6s-22.62-42.9-55.38-53-52.26.78-60.06,11.7a56.1,56.1,0,0,0-9.36,22.62s-42.12-12.48-54.6-.78S209.13,90,209.13,90s-30.42-6.24-37.44,4.68-7,16.39-7,16.39-25.74-.78-29.64,3.9a54.56,54.56,0,0,0-6.24,9.36l-23.4,5.46h378.3L458,120.39s-9.36-37.45-23.4-49.15S408,62.66,397.11,80.6Z" style="fill:none;stroke:#263238;stroke-linecap:round;stroke-linejoin:round"></path><path d="M397.11,80.6s-4.68,9.36,0,25.75c0,0-14-10.15-25.74-6.25s-10.92,14.05-10.92,14.05" style="fill:none;stroke:#263238;stroke-linecap:round;stroke-linejoin:round"></path><path d="M272.31,61.88,271.53,79s-15.6-10.14-25-2.34-6.24,21.06-6.24,21.06-9.36,0-11.7,3.13L226.29,104" style="fill:none;stroke:#263238;stroke-linecap:round;stroke-linejoin:round"></path><path d="M143.55,187.82s-10-19-24.48-23.44-23.1.34-26.55,5.17a24.81,24.81,0,0,0-4.14,10S69.77,174,64.25,179.2,60.46,192,60.46,192,47,189.2,43.91,194s-3.11,7.24-3.11,7.24-11.37-.35-13.1,1.72A24.06,24.06,0,0,0,25,207.13L14.6,209.54H181.82l-11.38-4.13s-4.14-16.55-10.34-21.73S148.37,179.89,143.55,187.82Z" style="fill:none;stroke:#263238;stroke-linecap:round;stroke-linejoin:round"></path><path d="M143.55,187.82s-2.07,4.14,0,11.38c0,0-6.21-4.48-11.38-2.76s-4.83,6.21-4.83,6.21" style="fill:none;stroke:#263238;stroke-linecap:round;stroke-linejoin:round"></path><path d="M88.38,179.55,88,187.13s-6.9-4.48-11-1-2.76,9.31-2.76,9.31-4.14,0-5.17,1.38l-1,1.38" style="fill:none;stroke:#263238;stroke-linecap:round;stroke-linejoin:round"></path></g></svg>
