<svg id="visual" viewBox="0 0 1920 240" width="1920" height="240" xmlns="http://www.w3.org/2000/svg" xmlns:xlink="http://www.w3.org/1999/xlink" version="1.1"><rect x="0" y="0" width="1920" height="240" fill="#ccf1c6"></rect><path d="M0 10L53.3 9.2C106.7 8.3 213.3 6.7 320 9.8C426.7 13 533.3 21 640 23.8C746.7 26.7 853.3 24.3 960 20C1066.7 15.7 1173.3 9.3 1280 7.5C1386.7 5.7 1493.3 8.3 1600 11.7C1706.7 15 1813.3 19 1866.7 21L1920 23L1920 0L1866.7 0C1813.3 0 1706.7 0 1600 0C1493.3 0 1386.7 0 1280 0C1173.3 0 1066.7 0 960 0C853.3 0 746.7 0 640 0C533.3 0 426.7 0 320 0C213.3 0 106.7 0 53.3 0L0 0Z" fill="#fff" stroke-linecap="round" stroke-linejoin="miter"></path></svg>