<svg id="visual" viewBox="0 0 1920 1000" width="1920" height="1000" xmlns="http://www.w3.org/2000/svg" xmlns:xlink="http://www.w3.org/1999/xlink" version="1.1"><path d="M0 69L24.7 66.7C49.3 64.3 98.7 59.7 147.8 53.2C197 46.7 246 38.3 295.2 37.8C344.3 37.3 393.7 44.7 443 45.2C492.3 45.7 541.7 39.3 590.8 38.2C640 37 689 41 738.2 44C787.3 47 836.7 49 886 50C935.3 51 984.7 51 1034 47.8C1083.3 44.7 1132.7 38.3 1181.8 36C1231 33.7 1280 35.3 1329.2 41.3C1378.3 47.3 1427.7 57.7 1477 58.2C1526.3 58.7 1575.7 49.3 1624.8 46.5C1674 43.7 1723 47.3 1772.2 52C1821.3 56.7 1870.7 62.3 1895.3 65.2L1920 68L1920 0L1895.3 0C1870.7 0 1821.3 0 1772.2 0C1723 0 1674 0 1624.8 0C1575.7 0 1526.3 0 1477 0C1427.7 0 1378.3 0 1329.2 0C1280 0 1231 0 1181.8 0C1132.7 0 1083.3 0 1034 0C984.7 0 935.3 0 886 0C836.7 0 787.3 0 738.2 0C689 0 640 0 590.8 0C541.7 0 492.3 0 443 0C393.7 0 344.3 0 295.2 0C246 0 197 0 147.8 0C98.7 0 49.3 0 24.7 0L0 0Z" fill="#ccf1c6" stroke-linecap="round" stroke-linejoin="miter"></path></svg>