<svg id="visual" viewBox="0 0 1400 700" width="1400" height="700" xmlns="http://www.w3.org/2000/svg" xmlns:xlink="http://www.w3.org/1999/xlink" version="1.1"><g><g transform="translate(170 610)"><path d="M81.5 -27.8C93.1 9.2 81.3 52.5 53.3 72.7C25.3 92.8 -18.9 89.9 -48.8 68C-78.6 46.1 -94 5.3 -83.5 -30.3C-73 -65.9 -36.5 -96.2 -0.8 -96C34.9 -95.7 69.9 -64.9 81.5 -27.8Z" fill="#e3c3e9"></path></g><g transform="translate(930 244)"><path d="M23.4 -7.1C27.1 3.7 24.6 17 16.6 22.8C8.6 28.6 -4.9 26.9 -13.4 20.3C-21.9 13.7 -25.4 2.1 -22.4 -7.8C-19.3 -17.7 -9.7 -26 0.1 -26C9.9 -26 19.7 -17.8 23.4 -7.1Z" fill="#e3c3e9"></path></g><g transform="translate(255 88)"><path d="M41.8 -13.2C47.6 4.1 41 25.8 26.5 36.4C11.9 46.9 -10.7 46.3 -24.8 35.7C-38.8 25.1 -44.5 4.4 -38.9 -12.6C-33.4 -29.7 -16.7 -43.1 0.7 -43.3C18 -43.6 36.1 -30.6 41.8 -13.2Z" fill="#e3c3e9"></path></g><g transform="translate(932 592)"><path d="M24.5 -8.1C27.6 1.3 22.8 13.2 13.5 20.3C4.2 27.5 -9.7 30 -18.4 24C-27.1 18 -30.5 3.5 -26.6 -7.3C-22.6 -18 -11.3 -24.9 -0.3 -24.8C10.8 -24.7 21.5 -17.6 24.5 -8.1Z" fill="#e3c3e9"></path></g><g transform="translate(423 365)"><path d="M26.1 -7C30.1 3.7 26.9 18.3 18.1 24.6C9.3 30.8 -5.1 28.9 -14.8 21.6C-24.5 14.3 -29.4 1.6 -26.1 -8.2C-22.8 -18 -11.4 -24.8 -0.2 -24.8C11.1 -24.7 22.1 -17.8 26.1 -7Z" fill="#e3c3e9"></path></g><g transform="translate(638 120)"><path d="M75.2 -21.5C86.6 10.6 77.5 52.4 50.7 72.4C24 92.5 -20.4 90.9 -49.3 69.5C-78.1 48.2 -91.4 7.1 -80.6 -24.2C-69.8 -55.5 -34.9 -77 -1.5 -76.5C31.9 -76 63.8 -53.6 75.2 -21.5Z" fill="#e3c3e9"></path></g><g transform="translate(1313 591)"><path d="M25.8 -8.2C28.9 1.2 23.8 13.5 14.6 20.3C5.3 27.1 -8.1 28.4 -15.9 22.6C-23.6 16.8 -25.6 3.9 -22 -6.2C-18.4 -16.3 -9.2 -23.7 1.1 -24C11.3 -24.4 22.7 -17.7 25.8 -8.2Z" fill="#e3c3e9"></path></g><g transform="translate(1229 74)"><path d="M41.2 -13.9C46.6 3.4 39.7 24.2 24.3 36C9 47.8 -14.8 50.5 -29.5 40C-44.1 29.5 -49.6 5.8 -43.2 -12.9C-36.7 -31.6 -18.4 -45.3 -0.3 -45.2C17.9 -45.1 35.7 -31.3 41.2 -13.9Z" fill="#e3c3e9"></path></g><g transform="translate(46 292)"><path d="M25 -9.4C28.5 2.6 24.7 15.6 15.5 22.6C6.4 29.5 -8.1 30.3 -18.5 23.3C-28.9 16.3 -35.1 1.4 -31.3 -10.9C-27.5 -23.3 -13.8 -33.2 -1.5 -32.7C10.8 -32.2 21.5 -21.4 25 -9.4Z" fill="#e3c3e9"></path></g><g transform="translate(653 541)"><path d="M31.3 -8.5C36.4 5.3 33.3 23.5 21.7 32.6C10.1 41.7 -10.1 41.7 -23 32.2C-35.9 22.7 -41.5 3.7 -36.4 -10.1C-31.3 -24 -15.7 -32.7 -1.3 -32.3C13.1 -31.9 26.3 -22.4 31.3 -8.5Z" fill="#e3c3e9"></path></g></g></svg>