<svg width="1920" height="1000" xmlns="http://www.w3.org/2000/svg" version="1.1">

 <g>
  <title>Layer 1</title>
  <rect id="svg_1" fill="#fbe6fe" height="1000" width="1920" y="0" x="0"/>
  <path id="svg_2" stroke-linecap="round" fill="#ccf1c6" d="m0,48l80,7.7c80,7.6 240,23 400,22.1c160,-0.8 320,-17.8 480,-32.3c160,-14.5 320,-26.5 480,-18.2c160,8.4 320,37 400,51.4l80,14.3l0,-93l-80,0c-80,0 -240,0 -400,0c-160,0 -320,0 -480,0c-160,0 -320,0 -480,0c-160,0 -320,0 -400,0l-80,0l0,48z"/>
  <path id="svg_3" stroke-linecap="round" fill="#ccf1c6" d="m0,969l80,-3c80,-3 240,-9 400,-14.5c160,-5.5 320,-10.5 480,-4.8c160,5.6 320,22 480,17.3c160,-4.7 320,-30.3 400,-43.2l80,-12.8l0,93l-80,0c-80,0 -240,0 -400,0c-160,0 -320,0 -480,0c-160,0 -320,0 -480,0c-160,0 -320,0 -400,0l-80,0l0,-32z"/>
 </g>
</svg>