<svg id="visual" viewBox="0 0 1920 1080" width="1920" height="1080" xmlns="http://www.w3.org/2000/svg" xmlns:xlink="http://www.w3.org/1999/xlink" version="1.1"><rect x="0" y="0" width="1920" height="1080" fill="#fbe6fe"></rect><path d="M0 199L45.7 201C91.3 203 182.7 207 274.2 203.2C365.7 199.3 457.3 187.7 548.8 168C640.3 148.3 731.7 120.7 823 118.3C914.3 116 1005.7 139 1097 154.2C1188.3 169.3 1279.7 176.7 1371.2 175C1462.7 173.3 1554.3 162.7 1645.8 169.2C1737.3 175.7 1828.7 199.3 1874.3 211.2L1920 223L1920 0L1874.3 0C1828.7 0 1737.3 0 1645.8 0C1554.3 0 1462.7 0 1371.2 0C1279.7 0 1188.3 0 1097 0C1005.7 0 914.3 0 823 0C731.7 0 640.3 0 548.8 0C457.3 0 365.7 0 274.2 0C182.7 0 91.3 0 45.7 0L0 0Z" fill="#fff" stroke-linecap="round" stroke-linejoin="miter"></path></svg>