<svg width="1920" height="1080" xmlns="http://www.w3.org/2000/svg" version="1.1">

 <g>
  <title>Layer 1</title>
  <rect id="svg_1" fill="#fbe6fe" height="1080" width="1920"/>
  <path id="svg_2" stroke-linecap="round" fill="#fff" d="m0,65l80,-5c80,-5 240,-15 400,-20c160,-5 320,-5 480,-5.8c160,-0.9 320,-2.5 480,2.5c160,5 320,16.6 400,22.5l80,5.8l0,-65l-80,0c-80,0 -240,0 -400,0c-160,0 -320,0 -480,0c-160,0 -320,0 -480,0c-160,0 -320,0 -400,0l-80,0l0,65z"/>
  <path id="svg_3" stroke-linecap="round" fill="#fff" d="m0,1013l80,5c80,5 240,15 400,20c160,5 320,5 480,5.8c160,0.9 320,2.5 480,-2.5c160,-5 320,-16.6 400,-22.5l80,-5.8l0,68l-80,0c-80,0 -240,0 -400,0c-160,0 -320,0 -480,0c-160,0 -320,0 -480,0c-160,0 -320,0 -400,0l-80,0l0,-68z"/>
 </g>
</svg>