<svg width="1920" height="1080" xmlns="http://www.w3.org/2000/svg" version="1.1">
 <g>
  <title>Layer 1</title>
  <rect width="1920" height="1080" fill="#fbe6fe" id="svg_1"/>
  <path d="m0,65l80,-5c80,-5 240,-15 400,-20c160,-5 320,-5 480,-5.8c160,-0.9 320,-2.5 480,2.5c160,5 320,16.6 400,22.5l80,5.8l0,-65l-80,0c-80,0 -240,0 -400,0c-160,0 -320,0 -480,0c-160,0 -320,0 -480,0c-160,0 -320,0 -400,0l-80,0l0,65z" fill="#fff" stroke-linecap="round" id="svg_2"/>
  <path d="m0,1013l80,5c80,5 240,15 400,20c160,5 320,5 480,5.8c160,0.9 320,2.5 480,-2.5c160,-5 320,-16.6 400,-22.5l80,-5.8l0,68l-80,0c-80,0 -240,0 -400,0c-160,0 -320,0 -480,0c-160,0 -320,0 -480,0c-160,0 -320,0 -400,0l-80,0l0,-68z" fill="#fff" stroke-linecap="round" id="svg_3"/>
  <path stroke="#e3c3e9" id="svg_4" stroke-width="40" stroke-linecap="round" fill="none" d="m-3.44839,458.51622l45.84894,36.3c45.98662,36.4 137.68449,109 229.52005,128.2c91.83555,19.2 183.53343,-15.2 275.36898,-25.2c91.83555,-10 183.53343,4.4 275.36898,-0.1c91.83555,-4.5 183.53343,-27.9 275.36898,-59.4c91.83555,-31.5 183.53343,-71.1 275.36898,-67.3c91.83555,3.8 183.53343,51.2 275.36898,50c91.83555,-1.2 183.53343,-50.8 229.52005,-75.7l45.84894,-24.8"/>
 </g>

</svg>