<svg width="1920" height="900" xmlns="http://www.w3.org/2000/svg" version="1.1">

 <g>
  <title>Layer 1</title>
  <rect id="svg_1" fill="#fbe6fe" height="900" width="1920" y="0" x="0"/>
  <path id="svg_2" stroke-linecap="round" fill="#CCF1C6" d="m0,54l80,-4.2c80,-4.1 240,-12.5 400,-16.6c160,-4.2 320,-4.2 480,-4.9c160,-0.6 320,-2 480,2.2c160,4.2 320,13.8 400,18.7l80,4.8l0,-54l-80,0c-80,0 -240,0 -400,0c-160,0 -320,0 -480,0c-160,0 -320,0 -480,0c-160,0 -320,0 -400,0l-80,0l0,54z"/>
  <path id="svg_3" stroke-linecap="round" fill="#CCF1C6" d="m0,844l80,4.2c80,4.1 240,12.5 400,16.6c160,4.2 320,4.2 480,4.9c160,0.6 320,2 480,-2.2c160,-4.2 320,-13.8 400,-18.7l80,-4.8l0,57l-80,0c-80,0 -240,0 -400,0c-160,0 -320,0 -480,0c-160,0 -320,0 -480,0c-160,0 -320,0 -400,0l-80,0l0,-57z"/>
 </g>
</svg>