<svg width="1920" height="900" xmlns="http://www.w3.org/2000/svg" version="1.1">
 <g>
  <title>Layer 1</title>
  <rect width="1920" height="900" fill="#fbe6fe" id="svg_1"/>
  <path d="m0,54l80,-4.2c80,-4.1 240,-12.5 400,-16.6c160,-4.2 320,-4.2 480,-4.9c160,-0.6 320,-2 480,2.2c160,4.2 320,13.8 400,18.7l80,4.8l0,-54l-80,0c-80,0 -240,0 -400,0c-160,0 -320,0 -480,0c-160,0 -320,0 -480,0c-160,0 -320,0 -400,0l-80,0l0,54z" fill="#CCF1C6" stroke-linecap="round" id="svg_2"/>
  <path d="m0,844l80,4.2c80,4.1 240,12.5 400,16.6c160,4.2 320,4.2 480,4.9c160,0.6 320,2 480,-2.2c160,-4.2 320,-13.8 400,-18.7l80,-4.8l0,57l-80,0c-80,0 -240,0 -400,0c-160,0 -320,0 -480,0c-160,0 -320,0 -480,0c-160,0 -320,0 -400,0l-80,0l0,-57z" fill="#CCF1C6" stroke-linecap="round" id="svg_3"/>
  <path stroke="#e3c3e9" id="svg_4" stroke-width="40" stroke-linecap="round" fill="none" d="m-2.56415,392.566l45.74199,36.3c45.87935,36.4 137.36333,109 228.98467,128.2c91.62134,19.2 183.10532,-15.2 274.72666,-25.2c91.62134,-10 183.10532,4.4 274.72666,-0.1c91.62134,-4.5 183.10532,-27.9 274.72666,-59.4c91.62134,-31.5 183.10532,-71.1 274.72666,-67.3c91.62134,3.8 183.10532,51.2 274.72666,50c91.62134,-1.2 183.10532,-50.8 228.98467,-75.7l45.74199,-24.8"/>
 </g>

</svg>