<svg width="1920" height="1080" xmlns="http://www.w3.org/2000/svg" version="1.1">

 <g>
  <title>Layer 1</title>
  <rect id="svg_1" fill="#fbe6fe" height="1080" width="1920" y="0" x="0"/>
  <path id="svg_2" stroke-linecap="round" fill="#ccf1c6" d="m0,50l40,5.5c40,5.5 120,16.5 200,24.2c80,7.6 160,12 240,7.6c80,-4.3 160,-17.3 240,-26c80,-8.6 160,-13 240,-11.5c80,1.5 160,8.9 240,28.4c80,19.5 160,51.1 240,61.5c80,10.3 160,-0.7 240,-8.4c80,-7.6 160,-12 200,-14.1l40,-2.2l0,-115l-40,0c-40,0 -120,0 -200,0c-80,0 -160,0 -240,0c-80,0 -160,0 -240,0c-80,0 -160,0 -240,0c-80,0 -160,0 -240,0c-80,0 -160,0 -240,0c-80,0 -160,0 -240,0c-80,0 -160,0 -200,0l-40,0l0,50z"/>
  <path id="svg_3" stroke-linecap="round" fill="#ccf1c6" d="m0,1057l40,-6.7c40,-6.6 120,-20 200,-30c80,-10 160,-16.6 240,-18c80,-1.3 160,2.7 240,1.4c80,-1.4 160,-8 240,-8.2c80,-0.2 160,6.2 240,14.5c80,8.3 160,18.7 240,22.8c80,4.2 160,2.2 240,-0.1c80,-2.4 160,-5 200,-6.4l40,-1.3l0,56l-40,0c-40,0 -120,0 -200,0c-80,0 -160,0 -240,0c-80,0 -160,0 -240,0c-80,0 -160,0 -240,0c-80,0 -160,0 -240,0c-80,0 -160,0 -240,0c-80,0 -160,0 -240,0c-80,0 -160,0 -200,0l-40,0l0,-24z"/>
 </g>
</svg>