<svg width="1920" height="999.9999999999999" xmlns="http://www.w3.org/2000/svg" version="1.1">

 <g>
  <title>Layer 1</title>
  <rect id="svg_1" fill="#fbe6fe" height="1000" width="1920" y="0" x="0"/>
  <path id="svg_2" stroke-linecap="round" fill="#ccf1c6" d="m0,36l24.7,-1.3c24.6,-1.4 74,-4 123.1,2.5c49.2,6.5 98.2,22.1 147.4,29.1c49.1,7 98.5,5.4 147.8,4.5c49.3,-0.8 98.7,-0.8 147.8,-6.6c49.2,-5.9 98.2,-17.5 147.4,-21.9c49.1,-4.3 98.5,-1.3 147.8,-0.8c49.3,0.5 98.7,-1.5 148,-7.7c49.3,-6.1 98.7,-16.5 147.8,-20.3c49.2,-3.8 98.2,-1.2 147.4,9c49.1,10.2 98.5,27.8 147.8,29.8c49.3,2 98.7,-11.6 147.8,-10.6c49.2,1 98.2,16.6 147.4,28.6c49.1,12 98.5,20.4 123.1,24.5l24.7,4.2l0,-99l-24.7,0c-24.6,0 -74,0 -123.1,0c-49.2,0 -98.2,0 -147.4,0c-49.1,0 -98.5,0 -147.8,0c-49.3,0 -98.7,0 -147.8,0c-49.2,0 -98.2,0 -147.4,0c-49.1,0 -98.5,0 -147.8,0c-49.3,0 -98.7,0 -148,0c-49.3,0 -98.7,0 -147.8,0c-49.2,0 -98.2,0 -147.4,0c-49.1,0 -98.5,0 -147.8,0c-49.3,0 -98.7,0 -147.8,0c-49.2,0 -98.2,0 -147.4,0c-49.1,0 -98.5,0 -123.1,0l-24.7,0l0,36z"/>
  <path id="svg_3" stroke-linecap="round" fill="#ccf1c6" d="m0,934l24.7,6.3c24.6,6.4 74,19 123.1,24.9c49.2,5.8 98.2,4.8 147.4,-2.9c49.1,-7.6 98.5,-22 147.8,-28.8c49.3,-6.8 98.7,-6.2 147.8,-6c49.2,0.2 98.2,-0.2 147.4,4.5c49.1,4.7 98.5,14.3 147.8,22c49.3,7.7 98.7,13.3 148,14.5c49.3,1.2 98.7,-2.2 147.8,-8c49.2,-5.8 98.2,-14.2 147.4,-17c49.1,-2.8 98.5,-0.2 147.8,3.8c49.3,4 98.7,9.4 147.8,11.2c49.2,1.8 98.2,0.2 147.4,1.3c49.1,1.2 98.5,5.2 123.1,7.2l24.7,2l0,32l-24.7,0c-24.6,0 -74,0 -123.1,0c-49.2,0 -98.2,0 -147.4,0c-49.1,0 -98.5,0 -147.8,0c-49.3,0 -98.7,0 -147.8,0c-49.2,0 -98.2,0 -147.4,0c-49.1,0 -98.5,0 -147.8,0c-49.3,0 -98.7,0 -148,0c-49.3,0 -98.7,0 -147.8,0c-49.2,0 -98.2,0 -147.4,0c-49.1,0 -98.5,0 -147.8,0c-49.3,0 -98.7,0 -147.8,0c-49.2,0 -98.2,0 -147.4,0c-49.1,0 -98.5,0 -123.1,0l-24.7,0l0,-67z"/>
 </g>
</svg>