<svg id="visual" viewBox="0 0 1920 1080" width="1920" height="1080" xmlns="http://www.w3.org/2000/svg" xmlns:xlink="http://www.w3.org/1999/xlink" version="1.1"><g><g transform="translate(1315 779)"><path d="M177.3 -51.7C205.3 28.4 186.4 129.6 127.1 171.9C67.8 214.3 -32 197.9 -102.5 145.7C-172.9 93.4 -214 5.3 -192 -66.6C-170 -138.5 -85 -194.2 -5.2 -192.5C74.7 -190.8 149.4 -131.8 177.3 -51.7Z" stroke="#e3c3e9" fill="none" stroke-width="20"></path></g><g transform="translate(464 696)"><path d="M163.4 -53.6C183.8 9.6 153 89 96.5 129.3C39.9 169.6 -42.5 170.8 -93.2 132.9C-144 95 -162.9 17.9 -142.1 -46C-121.3 -109.9 -60.6 -160.6 5.4 -162.4C71.5 -164.2 143 -116.9 163.4 -53.6Z" stroke="#e3c3e9" fill="none" stroke-width="20"></path></g><g transform="translate(987 297)"><path d="M24.4 -7.7C28.3 4 25.7 18 17 24.6C8.3 31.2 -6.6 30.5 -16.1 23.3C-25.5 16.2 -29.4 2.7 -25.9 -8.6C-22.3 -19.9 -11.1 -29 -0.4 -28.8C10.3 -28.7 20.5 -19.4 24.4 -7.7Z" stroke="#e3c3e9" fill="none" stroke-width="20"></path></g></g></svg>