<svg id="visual" viewBox="0 0 1920 1080" width="1920" height="1080" xmlns="http://www.w3.org/2000/svg" xmlns:xlink="http://www.w3.org/1999/xlink" version="1.1"><g><g transform="translate(288 609)"><path d="M201 -65.8C228.5 19.3 196.7 123.1 129.4 170.2C62 217.2 -40.9 207.5 -113.1 155.2C-185.4 102.8 -227.1 7.7 -203.1 -72.5C-179.1 -152.7 -89.6 -218 -1.4 -217.6C86.8 -217.1 173.6 -150.9 201 -65.8Z" stroke="#e3c3e9" fill="none" stroke-width="20"></path></g><g transform="translate(1464 304)"><path d="M96 -27C109.2 9.6 94.4 59.6 60.4 84.6C26.5 109.6 -26.6 109.7 -60.7 84.7C-94.7 59.6 -109.7 9.6 -96.4 -27.1C-83.1 -63.8 -41.6 -87.1 -0.1 -87.1C41.4 -87 82.7 -63.7 96 -27Z" stroke="#e3c3e9" fill="none" stroke-width="20"></path></g><g transform="translate(950 790)"><path d="M196.5 -67.9C219.7 7.6 179.5 99.7 115.3 142.5C51.1 185.3 -37.1 178.9 -100.9 133.7C-164.7 88.6 -204 4.8 -183.1 -67.6C-162.3 -139.9 -81.1 -200.7 2.8 -201.6C86.6 -202.5 173.3 -143.5 196.5 -67.9Z" stroke="#e3c3e9" fill="none" stroke-width="20"></path></g></g></svg>