<svg id="visual" viewBox="0 0 1920 1080" width="1920" height="1080" xmlns="http://www.w3.org/2000/svg" xmlns:xlink="http://www.w3.org/1999/xlink" version="1.1"><g><g transform="translate(691 429)"><path d="M181.3 -59.3C203.5 9.4 168.4 96.4 105.2 141.5C42 186.6 -49.2 189.9 -108.8 147.2C-168.4 104.5 -196.3 15.8 -172.9 -54.5C-149.6 -124.9 -74.8 -176.9 2.4 -177.7C79.5 -178.4 159.1 -128 181.3 -59.3Z" stroke="#e3c3e9" fill="none" stroke-width="20"></path></g><g transform="translate(1603 753)"><path d="M165 -50.1C190.1 23.9 170.6 115.9 115.4 155.1C60.1 194.4 -30.7 180.9 -90 135.2C-149.2 89.5 -176.8 11.5 -156.6 -55.7C-136.3 -122.9 -68.2 -179.4 0.9 -179.7C69.9 -179.9 139.8 -124 165 -50.1Z" stroke="#e3c3e9" fill="none" stroke-width="20"></path></g></g></svg>